<svg width="56" height="61" viewBox="0 0 56 61" fill="none" xmlns="http://www.w3.org/2000/svg">
<path d="M51.0913 45.0316C49.22 45.0316 47.6501 46.3419 47.248 48.0928H28.2243V47.0852C28.2243 46.1237 27.5379 45.2861 26.592 45.0936C25.3665 44.844 24.1683 44.4408 23.0309 43.895C19.3607 42.1341 16.596 39.0493 15.2458 35.2089C13.8957 31.3685 14.1221 27.2322 15.883 23.562C17.9647 19.2232 21.8668 16.1825 26.5891 15.2194C27.5366 15.026 28.2243 14.188 28.2243 13.2266V12.0301H47.248C47.6501 13.781 49.22 15.0913 51.0913 15.0913C53.2661 15.0913 55.0354 13.3221 55.0354 11.1473C55.0354 8.97247 53.2661 7.20321 51.0913 7.20321C49.22 7.20321 47.6501 8.5135 47.248 10.2644H28.2243V5.47715H36.6536C37.0558 7.22817 38.6256 8.53834 40.4969 8.53834C42.6717 8.53834 44.441 6.76908 44.441 4.59428C44.441 2.41949 42.6717 0.65023 40.4969 0.65023C38.6256 0.65023 37.0558 1.96052 36.6536 3.71142H28.2243V2.34933C28.2243 1.76182 27.9704 1.20314 27.5276 0.816444C27.0866 0.43128 26.5007 0.255413 25.9222 0.334282C23.406 0.676128 20.9396 1.33039 18.5916 2.2787C17.8976 2.55898 17.3446 3.12166 17.0746 3.82231C16.8029 4.52742 16.8361 5.32165 17.1656 6.00134L18.7547 9.27888C18.9733 9.72997 18.8094 10.2784 18.3813 10.5274C16.4253 11.6657 14.6563 13.0822 13.1235 14.7375C12.79 15.0977 12.2216 15.1366 11.8297 14.8267L8.97628 12.5702C8.38524 12.1026 7.61867 11.8993 6.87354 12.0126C6.12522 12.1262 5.45024 12.5502 5.02187 13.1759C3.23342 15.788 1.86592 18.6495 0.957631 21.681C0.739975 22.4073 0.834148 23.1988 1.2159 23.8524C1.596 24.5033 2.23579 24.9719 2.97092 25.1381L6.51933 25.9403C7.00691 26.0505 7.33333 26.5174 7.26258 27.0029C6.93745 29.2363 6.9464 31.5026 7.28942 33.7387C7.36441 34.2282 7.04069 34.7002 6.55241 34.8135L3.00458 35.6358C2.27063 35.8059 1.63367 36.2777 1.25698 36.9302C0.878644 37.5857 0.788474 38.3775 1.00954 39.1028C1.9342 42.1354 3.31759 44.9915 5.12146 47.5918C5.55359 48.2149 6.23104 48.6348 6.98007 48.7439C7.72626 48.8524 8.49118 48.6446 9.07952 48.1736L11.9382 45.8846C12.3281 45.5724 12.8991 45.6103 13.2385 45.9711C13.5649 46.3181 13.9946 46.7106 14.5154 47.1376C14.8923 47.4466 15.4486 47.3916 15.7579 47.0145C16.067 46.6374 16.0119 46.0812 15.6349 45.7721C15.1727 45.3933 14.7992 45.0532 14.5248 44.7616C13.5592 43.7348 11.9381 43.6226 10.8347 44.5064L7.97594 46.7954C7.76523 46.9642 7.5019 47.0356 7.23457 46.9968C6.96406 46.9573 6.72886 46.8114 6.57218 46.5856C4.87296 44.1359 3.56974 41.4452 2.69852 38.588C2.61836 38.3252 2.64955 38.0499 2.78622 37.8132C2.92112 37.5794 3.14031 37.4171 3.40317 37.3561L6.95099 36.5338C8.33356 36.2133 9.2488 34.8681 9.03455 33.4713C8.71825 31.4083 8.70989 29.3176 9.00983 27.2574C9.21242 25.8653 8.28942 24.5303 6.9085 24.2181L3.3602 23.4159C3.09676 23.3563 2.87663 23.1951 2.74031 22.9619C2.60247 22.7259 2.56998 22.451 2.64885 22.1879C3.50476 19.3313 4.79339 16.6349 6.4786 14.1735C6.63375 13.9469 6.86812 13.7994 7.13828 13.7584C7.4049 13.7178 7.66882 13.7877 7.88083 13.9554L10.7342 16.2118C11.8448 17.0899 13.4631 16.9695 14.419 15.9373C15.8329 14.4105 17.4647 13.1038 19.2693 12.0537C20.4907 11.3429 20.9625 9.78577 20.3435 8.50867L18.7545 5.23101C18.6358 4.98616 18.6245 4.71129 18.7224 4.45715C18.8186 4.20735 19.007 4.01524 19.253 3.91589C21.4652 3.02243 23.789 2.40607 26.1601 2.08389C26.2573 2.07105 26.3254 2.11061 26.3664 2.14639C26.4009 2.17653 26.4587 2.24292 26.4587 2.34922V13.2266C26.4587 13.3545 26.3672 13.4625 26.2362 13.4892C20.9677 14.5637 16.614 17.9567 14.2911 22.7981C12.3261 26.8936 12.0736 31.5091 13.5801 35.7945C15.0867 40.0798 18.1717 43.522 22.2672 45.487C23.5353 46.0954 24.872 46.5452 26.2398 46.8237C26.3686 46.85 26.4585 46.9575 26.4585 47.0852V58.2823C26.4585 58.3884 26.4009 58.4548 26.3665 58.485C26.3258 58.5206 26.2575 58.5608 26.1614 58.5477C23.854 58.2401 21.5798 57.6417 19.4019 56.7689C19.1551 56.67 18.9657 56.4782 18.8684 56.2286C18.7697 55.9754 18.7799 55.7012 18.897 55.4564C18.8987 55.4527 18.9004 55.4491 18.9022 55.4454L20.692 51.5682C21.1575 50.56 20.8017 49.3499 19.8643 48.7533C19.2705 48.3756 18.6937 47.9961 18.1501 47.6253C17.7471 47.3504 17.1979 47.4543 16.9232 47.8573C16.6485 48.2601 16.7524 48.8094 17.1553 49.0841C17.7144 49.4654 18.307 49.8553 18.9164 50.243C19.1115 50.3672 19.1856 50.6186 19.089 50.8282L17.3015 54.7002C16.9788 55.3788 16.9502 56.1693 17.2233 56.8699C17.4958 57.569 18.0505 58.1296 18.7451 58.408C21.0591 59.3352 23.4759 59.9711 25.9282 60.298C26.0173 60.3099 26.1065 60.3158 26.1952 60.3158C26.6828 60.3158 27.1579 60.1392 27.5298 59.8136C27.9712 59.427 28.2244 58.869 28.2244 58.2824V56.4116H36.6538C37.0559 58.1625 38.6257 59.4728 40.497 59.4728C42.6718 59.4728 44.4411 57.7036 44.4411 55.5288C44.4411 53.354 42.6718 51.5847 40.497 51.5847C38.6257 51.5847 37.0559 52.895 36.6538 54.6459H28.2244V49.8587H47.2481C47.6503 51.6097 49.2201 52.9199 51.0914 52.9199C53.2662 52.9199 55.0355 51.1506 55.0355 48.9758C55.0355 46.801 53.266 45.0316 51.0913 45.0316ZM51.0913 8.96882C52.2925 8.96882 53.2696 9.94598 53.2696 11.1471C53.2696 12.3483 52.2925 13.3255 51.0913 13.3255C49.8901 13.3255 48.9129 12.3483 48.9129 11.1471C48.9129 9.94598 49.8901 8.96882 51.0913 8.96882ZM40.4969 2.41596C41.6981 2.41596 42.6753 3.39312 42.6753 4.59428C42.6753 5.79545 41.6981 6.77261 40.4969 6.77261C39.2958 6.77261 38.3185 5.79545 38.3185 4.59428C38.3185 3.39312 39.2958 2.41596 40.4969 2.41596ZM40.4969 53.3502C41.6981 53.3502 42.6753 54.3274 42.6753 55.5285C42.6753 56.7297 41.6981 57.7069 40.4969 57.7069C39.2958 57.7069 38.3185 56.7297 38.3185 55.5285C38.3185 54.3274 39.2958 53.3502 40.4969 53.3502ZM51.0913 51.1541C49.8901 51.1541 48.9129 50.177 48.9129 48.9758C48.9129 47.7746 49.8901 46.7975 51.0913 46.7975C52.2925 46.7975 53.2696 47.7746 53.2696 48.9758C53.2696 50.177 52.2925 51.1541 51.0913 51.1541Z" fill="#BEBBBB"/>
<path d="M28.9492 27.2853C29.4369 27.2853 29.832 26.89 29.832 26.4024C29.832 25.9148 29.4369 25.5195 28.9492 25.5195H25.7521C25.2644 25.5195 24.8693 25.9148 24.8693 26.4024V33.9897C24.8693 34.4773 25.2644 34.8726 25.7521 34.8726H28.9492C29.4369 34.8726 29.832 34.4773 29.832 33.9897C29.832 33.5022 29.4369 33.1069 28.9492 33.1069H26.635V31.0789H28.7134C29.2011 31.0789 29.5963 30.6836 29.5963 30.196C29.5963 29.7084 29.2011 29.3131 28.7134 29.3131H26.635V27.2851H28.9492V27.2853Z" fill="#BEBBBB"/>
<path d="M38.7906 28.3576C38.7906 26.7734 37.4512 25.4846 35.8051 25.4846H33.7701C33.7697 25.4846 33.7693 25.4846 33.7689 25.4846C33.7686 25.4846 33.7681 25.4846 33.7678 25.4846C33.2801 25.4846 32.8849 25.8799 32.8849 26.3675V34.0247C32.8849 34.5123 33.2801 34.9076 33.7678 34.9076C34.2555 34.9076 34.6506 34.5123 34.6506 34.0247V31.6603L37.245 34.608C37.4194 34.8063 37.6632 34.9076 37.9081 34.9076C38.1152 34.9076 38.3232 34.8351 38.491 34.6875C38.857 34.3654 38.8925 33.8074 38.5704 33.4415L36.5456 31.1408C37.8347 30.8231 38.7906 29.6959 38.7906 28.3576ZM35.805 29.4648C35.5395 29.4648 35.0777 29.4668 34.6622 29.4688C34.6599 29.0623 34.6581 28.6142 34.6581 28.3577C34.6581 28.1402 34.6569 27.6761 34.6557 27.2505H35.8051C36.4663 27.2505 37.0248 27.7575 37.0248 28.3577C37.0248 28.9578 36.4663 29.4648 35.805 29.4648Z" fill="#BEBBBB"/>
<path d="M42.0816 34.0249C42.0816 34.5125 42.4768 34.9077 42.9645 34.9077C43.4522 34.9077 43.8474 34.5125 43.8474 34.0249V31.5769C44.295 31.5745 44.8074 31.5723 45.0965 31.5723C46.7981 31.5723 48.1826 30.2069 48.1826 28.5285C48.1826 26.8502 46.7981 25.4847 45.0965 25.4847H42.9645C42.7299 25.4847 42.5049 25.5781 42.3392 25.7443C42.1736 25.9105 42.0809 26.1358 42.0816 26.3704V34.0249ZM45.0965 27.2505C45.8123 27.2505 46.4168 27.8358 46.4168 28.5285C46.4168 29.2213 45.8123 29.8065 45.0965 29.8065C44.8096 29.8065 44.3033 29.8088 43.8572 29.8111C43.8549 29.3506 43.8512 27.7323 43.8499 27.2506H45.0965V27.2505Z" fill="#BEBBBB"/>
<path d="M34.6919 20.7338H28.1709C22.8883 20.7338 18.5905 25.0314 18.5905 30.314C18.5905 35.5966 22.8883 39.8944 28.1709 39.8944H44.1781C49.4607 39.8944 53.7585 35.5967 53.7585 30.314C53.7585 25.0314 49.4607 20.7338 44.1781 20.7338H38.2232C37.7355 20.7338 37.3404 21.1291 37.3404 21.6166C37.3404 22.1042 37.7355 22.4995 38.2232 22.4995H44.1781C48.4871 22.4995 51.9928 26.0051 51.9928 30.314C51.9928 34.623 48.4872 38.1287 44.1781 38.1287H28.1709C23.862 38.1287 20.3563 34.623 20.3563 30.314C20.3563 26.0051 23.8618 22.4995 28.1709 22.4995H34.6919C35.1796 22.4995 35.5748 22.1042 35.5748 21.6166C35.5748 21.1291 35.1795 20.7338 34.6919 20.7338Z" fill="#BEBBBB"/>
</svg>
